HIERARCHY
ROOT Hips
{
     OFFSET 52.94370 91.46940 122.91700
     CHANNELS 6 Xposition Yposition Zposition Zrotation Xrotation Yrotation
     JOINT Spine
     {
          OFFSET 0.00000 11.89050 -0.00000
          CHANNELS 3 Zrotation Xrotation Yrotation
          JOINT Spine1
          {
               OFFSET -0.00000 25.65740 0.12766
               CHANNELS 3 Zrotation Xrotation Yrotation
               JOINT HEad
               {
                    OFFSET -0.00000 8.73416 0.01134
                    CHANNELS 3 Zrotation Xrotation Yrotation
                    End Site
                    {
                         OFFSET -0.29000 12.77420 2.51395
                    }
               }
               JOINT LeftShoulder1
               {
                    OFFSET 8.99000 -0.36225 -0.22000
                    CHANNELS 3 Zrotation Xrotation Yrotation
                    JOINT LeftArm
                    {
                         OFFSET 10.28270 -0.00338 0.32212
                         CHANNELS 3 Zrotation Xrotation Yrotation
                         JOINT LeftForeArm
                         {
                              OFFSET 32.76690 0.09914 -1.42434
                              CHANNELS 3 Zrotation Xrotation Yrotation
                              JOINT LeftHand
                              {
                                   OFFSET 27.56430 0.08536 1.02216
                                   CHANNELS 3 Zrotation Xrotation Yrotation
                                   End Site
                                   {
                                        OFFSET 16.74430 -0.60000 1.50291
                                   }
                              }
                         }
                    }
               }
               JOINT RightShoulder
               {
                    OFFSET -8.99000 -0.36225 -0.22000
                    CHANNELS 3 Zrotation Xrotation Yrotation
                    JOINT RightArm
                    {
                         OFFSET -10.28270 -0.00338 0.32212
                         CHANNELS 3 Zrotation Xrotation Yrotation
                         JOINT RightForeArm
                         {
                              OFFSET -32.89710 0.09914 -1.42434
                              CHANNELS 3 Zrotation Xrotation Yrotation
                              JOINT RightHand
                              {
                                   OFFSET -27.49210 0.08536 1.02216
                                   CHANNELS 3 Zrotation Xrotation Yrotation
                                   End Site
                                   {
                                        OFFSET -16.63120 -0.60000 1.50291
                                   }
                              }
                         }
                    }
               }
          }
     }
     JOINT LeftUpLeg
     {
          OFFSET 8.94580 -8.66707 0.10165
          CHANNELS 3 Zrotation Xrotation Yrotation
          JOINT LeftLeg
          {
               OFFSET 0.00000 -44.42270 1.37270
               CHANNELS 3 Zrotation Xrotation Yrotation
               JOINT LeftFoot
               {
                    OFFSET -0.25355 -42.09240 -1.46059
                    CHANNELS 3 Zrotation Xrotation Yrotation
                    JOINT LeftToes
                    {
                         OFFSET -0.04000 -4.41509 8.49910
                         CHANNELS 3 Zrotation Xrotation Yrotation
                         End Site
                         {
                              OFFSET 0.08000 -0.04745 9.77979
                         }
                    }
               }
          }
     }
     JOINT RightUpLeg
     {
          OFFSET -8.94580 -8.66707 0.10165
          CHANNELS 3 Zrotation Xrotation Yrotation
          JOINT RightLeg
          {
               OFFSET -0.00000 -44.42270 1.37270
               CHANNELS 3 Zrotation Xrotation Yrotation
               JOINT RightFoot
               {
                    OFFSET 0.25355 -42.09240 -1.46059
                    CHANNELS 3 Zrotation Xrotation Yrotation
                    JOINT RightToes
                    {
                         OFFSET 0.04000 -4.41509 8.49910
                         CHANNELS 3 Zrotation Xrotation Yrotation
                         End Site
                         {
                              OFFSET -0.08000 -0.13745 9.77979
                         }
                    }
               }
          }
     }
}
MOTION
Frames: 21
Frame Time: 0.01667
6.60427 91.52330 35.75770 -4.83261 -11.93490 14.25640 -0.22640 9.10468 -8.06128 1.15897 18.09630 -15.79400 0.08246 10.00910 1.67895 -0.00000 0.00000 -0.00000 -23.07070 -12.38450 -96.25670 -107.22500 -20.84720 -116.01300 7.27169 9.17552 -8.41046 6.19973 0.61727 3.08649 84.75660 -4.39485 109.74300 13.67310 8.64130 66.79060 23.16170 12.64940 8.86743 23.84470 28.33120 -33.53070 -23.89040 10.40840 69.16790 -21.46420 -9.10432 -0.23748 4.94187 -22.17100 -46.59350 -21.29320 -8.62327 -1.48988 39.09590 5.55649 -23.31150 -19.65230 12.81370 3.49545 0.69502 -12.17080 9.96585 
6.20983 91.04140 37.22320 -5.91172 -12.40010 11.63280 0.17860 9.12790 -8.16835 1.31919 18.06750 -16.32980 -0.48642 9.53861 3.32677 -0.00000 0.00000 -0.00000 -23.48390 -13.53740 -96.43050 -116.17500 -16.34510 -117.97500 9.28656 8.86594 -9.56878 6.25384 0.54735 2.35308 84.32620 -3.68107 110.09900 14.01790 8.72362 66.42180 23.64720 12.70130 8.84176 24.88280 30.12920 -33.96890 -24.56300 9.86520 71.66470 -19.30730 -7.38532 0.07556 4.27995 -25.52980 -45.47210 -19.09550 -8.76783 -2.05813 39.07490 8.22300 -22.39450 -21.35510 10.98580 3.45470 1.32702 -15.93850 12.13960 
5.59016 91.24300 38.97990 -6.19987 -13.31310 8.78673 -1.03607 8.85958 -7.43708 1.21085 18.21220 -16.44130 -1.30110 9.30088 4.56615 -0.00000 0.00000 -0.00000 -25.02140 -14.92380 -96.38950 -124.16000 -12.27190 -117.66200 11.09820 8.52808 -10.86730 5.75696 0.43855 1.38956 84.52950 -2.41199 110.57000 14.11000 8.95739 66.27400 23.85120 12.74790 8.94639 26.30570 33.07230 -35.07110 -25.84650 7.06572 74.34240 -14.25040 -3.47579 0.52993 3.65622 -28.70710 -45.18140 -17.37510 -7.51407 -2.20448 38.75000 9.65165 -20.64780 -23.37830 10.45910 3.68442 2.10414 -19.63470 14.10040 
4.88676 91.53100 40.50710 -6.60835 -14.42460 6.36682 -1.69655 8.92530 -6.90900 1.05081 18.73390 -16.14770 -2.39071 9.35729 5.52459 -0.00000 0.00000 -0.00000 -27.39600 -16.42690 -96.09590 -132.28300 -8.75775 -116.08400 12.50520 8.24398 -11.79880 4.73005 0.32545 0.39735 85.18810 -0.61400 111.06500 13.77380 9.34973 66.26740 23.78280 12.78400 9.15215 27.13470 33.40230 -35.50170 -28.22930 8.80654 77.40710 -9.78302 1.39715 0.75077 3.17692 -30.44080 -46.69000 -15.70190 -6.15188 -2.09608 38.36470 10.80330 -19.33030 -25.10250 10.52680 3.98437 2.90975 -22.87030 15.77150 
4.02609 92.21070 42.03460 -6.44170 -15.70580 4.10122 -3.09644 8.89813 -6.02784 0.57898 19.30820 -15.46270 -3.68016 9.75920 6.33278 -0.00000 0.00000 -0.00000 -30.33560 -17.88380 -95.48420 -141.56300 -5.53011 -113.98100 13.55450 8.05445 -12.15800 3.26297 0.23859 -0.41585 85.99770 1.57226 111.45000 13.00760 9.83894 66.27770 23.49210 12.79660 9.37667 27.37730 32.79070 -34.82370 -31.25520 11.90480 79.78820 -4.91848 7.50445 0.58843 3.27265 -28.69230 -51.00500 -14.66600 -3.78099 -1.34283 37.86150 10.31170 -17.60730 -26.62810 11.42600 4.45561 3.61576 -25.35600 17.10150 
3.03272 93.06880 43.28070 -5.64915 -17.18340 1.82325 -5.27635 8.61278 -4.58241 -0.34644 19.78520 -14.38730 -4.99470 10.53970 7.06554 -0.00000 0.00000 -0.00000 -33.69670 -19.14370 -94.46960 -153.27600 -2.19026 -111.62300 14.36320 7.92860 -12.22720 1.52107 0.19157 -0.87317 86.62770 3.93655 111.58400 11.99470 10.30880 66.17930 23.05260 12.77230 9.51858 25.40130 29.13850 -30.64840 -35.40020 21.48630 81.48110 -2.83210 13.29300 0.42018 4.88988 -22.31270 -56.99430 -14.46150 -0.76379 -0.01584 37.37330 8.49910 -15.46820 -27.89450 12.91700 5.05553 4.12755 -26.97000 18.07910 
1.93897 94.04320 44.15450 -4.20645 -18.89060 -0.36879 -8.16974 8.07603 -2.64556 -1.84384 20.15740 -12.90440 -6.10061 11.70600 7.68755 -0.00000 0.00000 -0.00000 -37.50090 -20.12470 -92.96710 -169.19800 1.41873 -108.81200 14.80850 7.79999 -12.73540 -0.27222 0.17728 -0.86944 86.80830 6.25405 111.33100 11.04910 10.62740 65.88450 22.53640 12.70550 9.50402 23.01570 24.63720 -24.29500 -39.62140 32.16040 81.93740 -1.34711 18.60800 0.18008 8.02664 -13.23670 -61.59310 -15.19770 3.04499 1.95886 36.90120 4.93572 -13.02660 -28.96130 15.01320 5.81012 4.43126 -27.81410 18.77480 
0.68235 94.92350 44.82370 -1.58850 -20.82590 -1.98282 -12.30790 7.49722 -0.45941 -4.01103 20.55890 -10.99310 -6.77098 13.22940 8.04256 -0.00000 0.00000 -0.00000 -41.87430 -20.85730 -90.89420 169.22600 4.64363 -105.30400 14.23430 7.69870 -14.29720 -1.88438 0.17689 -0.40175 86.38010 8.33898 110.56500 10.51200 10.69670 65.37590 21.99620 12.60180 9.31748 19.79790 19.34430 -15.52060 -42.67090 44.08870 80.41670 -0.85256 22.52240 0.07268 11.39620 -3.90909 -63.26160 -17.38410 5.18175 3.93579 36.83340 4.64299 -12.35720 -29.32830 14.82840 5.83809 4.58896 -28.15440 19.31960 
-0.60821 95.71390 45.16720 1.61497 -22.96750 -2.85127 -16.65170 7.15897 1.67291 -6.64307 21.15630 -8.64193 -6.83931 15.02550 7.90506 -0.00000 0.00000 -0.00000 -46.90310 -21.49990 -88.15000 143.66600 6.03228 -102.03700 11.96920 7.86880 -16.30830 -3.13444 0.17516 0.43387 85.29470 10.08160 109.17600 10.61480 10.50120 64.72430 21.46140 12.47610 9.00444 15.89370 12.59090 -4.64535 -42.86090 58.10670 75.90030 -2.37634 24.24410 0.49829 14.42090 6.40885 -61.85200 -20.31620 7.18723 6.45081 36.80510 4.22761 -13.14970 -29.51520 13.91720 5.63273 4.66755 -28.22590 19.80920 
-1.81306 96.31200 45.13890 4.87279 -25.21410 -2.81749 -20.37010 7.39146 3.45784 -9.54860 22.05410 -5.85601 -6.21892 16.94250 7.07355 -0.00000 0.00000 -0.00000 -52.48010 -22.31240 -84.60260 118.87400 5.48292 -101.18200 8.66279 8.39649 -17.32250 -3.93673 0.16918 1.48889 83.59270 11.46380 107.08600 11.35890 10.15240 64.07370 20.94350 12.34640 8.64385 11.51850 4.00137 7.77903 -32.47370 74.06140 60.73010 -7.21701 22.85280 1.76425 16.84430 21.88240 -56.08450 -23.42790 9.04590 9.41828 36.88320 3.66969 -15.90900 -29.58780 12.14210 5.17040 4.65428 -28.01480 20.20600 
-2.84378 96.62420 44.83840 7.67263 -27.48990 -1.99135 -22.79860 8.35192 4.78112 -12.47940 23.23370 -2.66320 -4.90975 18.77210 5.45946 -0.00000 0.00000 -0.00000 -58.22560 -23.58390 -80.11020 97.01190 5.07775 -103.43900 5.58383 8.99776 -16.91110 -4.30234 0.16551 2.63722 81.39470 12.55230 104.24900 12.49800 9.89679 63.58690 20.43860 12.22440 8.29814 6.86486 -5.99951 20.80500 59.67430 81.26270 -35.48600 -17.34460 17.30350 3.66636 13.25940 47.80850 -39.08900 -26.20540 10.93480 12.65010 37.14000 2.92145 -20.56860 -29.50420 9.46981 4.43980 4.42971 -27.19100 20.31780 
-3.75735 96.79210 44.49530 10.28900 -29.87340 -0.70396 -24.74960 9.64496 6.08268 -15.38160 24.52160 0.87141 -3.01715 20.28980 3.13924 -0.00000 0.00000 -0.00000 -63.52630 -25.52140 -74.55880 77.12640 6.95617 -107.44500 3.36398 9.43957 -15.59600 -4.29960 0.17279 3.83994 78.90820 13.47060 100.64500 13.65530 10.04360 63.38140 19.92710 12.10790 7.96944 4.12713 -15.47000 27.94170 97.72560 73.28950 -73.90730 -26.54990 13.23700 4.80328 -4.63920 64.58160 -11.99970 -28.98070 13.11750 16.05710 37.57280 1.91638 -26.27940 -29.17320 6.10884 3.49793 3.84192 -25.27620 19.86770 
-4.42857 96.77050 44.27390 12.17040 -32.41540 0.62763 -25.50850 11.20220 7.24011 -17.98370 25.80560 4.67886 -0.76986 21.31390 0.35803 -0.00000 0.00000 -0.00000 -67.67650 -28.12770 -67.87610 58.56570 11.89460 -111.10300 2.20930 9.65746 -14.22320 -4.00020 0.19885 5.15970 76.41680 14.35160 96.30020 14.49150 10.82720 63.49530 19.38150 11.98530 7.60865 1.91880 -24.54410 33.12260 107.04000 64.48950 -80.79790 -38.21050 9.19888 5.73040 -47.46150 68.40690 40.01200 -31.31440 15.80180 19.30160 38.06760 0.62464 -32.06180 -28.53760 2.57364 2.50083 2.86504 -21.99780 18.62520 
-4.78920 96.58150 44.33360 13.01220 -35.28520 1.50960 -24.86750 12.76590 8.21073 -20.15040 26.93930 8.65324 1.50601 21.76000 -2.52134 -0.00000 0.00000 -0.00000 -70.09990 -31.12880 -60.04260 42.16490 18.67430 -112.92800 2.08667 9.68329 -13.71410 -3.44846 0.25317 6.70681 74.22340 15.28360 91.31870 14.80260 12.30100 63.90070 18.78610 11.84890 7.17589 0.37898 -32.48000 36.78560 110.23600 56.55720 -78.80600 -52.11490 6.05247 6.60928 -70.02850 58.39950 71.89100 -33.05280 19.14790 22.11700 38.48120 -0.86050 -36.82160 -27.77820 -0.46420 1.66083 1.71229 -17.64130 16.53940 
-4.81958 96.28750 44.76170 12.91020 -38.57970 1.58744 -23.09420 14.11160 8.98335 -21.84900 27.84620 12.66130 3.47492 21.67480 -5.12000 -0.00000 0.00000 -0.00000 -70.61130 -34.02730 -51.17010 29.21560 25.03010 -113.09700 2.64720 9.58167 -14.53760 -2.66936 0.34837 8.54193 72.56130 16.27600 85.92720 14.52810 14.33560 64.53310 18.15550 11.70540 6.69210 -0.30731 -38.72850 39.69020 111.50400 49.82020 -73.59940 -65.76550 4.55812 7.79929 -71.48100 47.60710 81.69240 -34.43960 23.01700 24.44760 38.71780 -2.24877 -39.85270 -27.18920 -2.46312 1.12554 0.73928 -13.10220 13.79790 
-4.55778 95.94680 45.54410 12.07380 -42.23860 0.69964 -20.67530 15.12660 9.53613 -23.15890 28.52130 16.54290 4.90161 21.22900 -7.15924 -0.00000 0.00000 -0.00000 -69.60900 -36.31700 -41.66150 20.23680 29.56580 -112.80400 3.45394 9.40377 -16.43070 -1.70169 0.49547 10.60110 71.52010 17.25850 80.46910 13.73600 16.70080 65.31230 17.53700 11.57190 6.22923 -0.01551 -43.30010 42.67630 112.00700 44.34280 -69.02640 -76.20820 3.86672 8.92724 -67.91710 40.64930 83.90240 -35.64280 26.80410 26.25720 38.72490 -2.64482 -41.18900 -26.84170 -3.41695 0.87466 0.19431 -9.48187 10.79530 
-4.11354 95.60140 46.53880 10.64940 -45.96480 -1.08129 -18.13200 15.80660 9.79140 -24.22210 29.00600 20.11020 5.71676 20.67280 -8.53144 -0.00000 0.00000 -0.00000 -67.99220 -37.76320 -32.27560 14.77460 32.15930 -112.89400 4.23019 9.18981 -18.78400 -0.61896 0.69419 12.69890 71.02390 18.11410 75.33960 12.61350 19.15020 66.14780 16.99560 11.46460 5.85871 1.33434 -46.62800 46.07960 112.07000 40.21020 -67.43140 -81.96560 2.62337 8.83217 -64.83780 37.71730 83.37670 -36.90340 30.39460 27.79590 38.52640 -2.65285 -41.03840 -27.15570 -3.16859 0.94876 0.07764 -7.54102 8.04426 
-3.67144 95.09650 47.58420 9.33078 -49.40560 -3.33445 -16.49480 16.26350 10.01840 -25.12330 29.33040 23.14320 6.00316 20.26690 -9.29154 -0.00000 0.00000 -0.00000 -66.72250 -38.50810 -23.91690 11.79250 33.33310 -113.43400 4.84159 8.98301 -21.02970 0.48803 0.92770 14.60080 70.86300 18.73350 70.89230 11.44210 21.45440 66.93600 16.59010 11.39100 5.61107 3.39698 -49.18880 49.77910 111.81300 37.61520 -68.98250 -82.73930 0.63311 7.24028 -63.63680 38.19800 81.72350 -38.69530 33.38270 29.44880 38.18420 -2.57847 -40.03090 -28.16640 -2.03232 1.28376 0.22544 -7.45928 6.04157 
-3.36989 94.42890 48.49660 8.71559 -52.34690 -5.44749 -16.42560 16.70120 10.46220 -26.05110 29.62410 25.49750 5.92218 20.20840 -9.58970 -0.00000 0.00000 -0.00000 -66.36500 -38.86680 -17.31410 10.10270 33.76630 -114.02400 5.22252 8.82791 -22.75140 1.54750 1.16830 16.10210 70.77240 19.06800 67.36710 10.53220 23.39830 67.55920 16.35520 11.35020 5.47380 5.98141 -51.15840 53.01110 111.21000 37.47410 -73.10330 -77.03330 -1.22017 5.09933 -64.78440 42.88000 78.82780 -39.48710 33.09830 29.46160 37.89540 3.16291 -40.26150 -27.81710 -2.76070 1.08024 0.47987 -8.93535 5.10171 
-3.21408 93.91480 49.01470 8.54940 -54.54480 -6.83579 -17.38840 17.22300 10.62310 -26.80520 29.83510 26.98720 5.63184 20.56940 -9.58916 -0.00000 0.00000 -0.00000 -66.99130 -39.04120 -12.86970 8.64892 34.05860 -114.16700 5.35254 8.75760 -23.68130 2.51809 1.38686 17.07140 70.53420 19.14700 64.86490 10.13210 24.79380 67.90820 16.29380 11.33580 5.41240 9.96516 -52.51540 53.40070 110.56000 43.49850 -80.51810 -58.10280 0.73598 4.62816 -63.39440 58.22610 65.04520 -40.51800 32.92050 29.78910 37.88460 6.81006 -40.56120 -28.30390 -2.86727 1.07491 0.77607 -11.39980 5.23953 
-3.17378 93.48680 49.30190 8.45988 -55.89890 -7.61674 -18.80510 17.77440 10.44060 -27.17790 29.93990 27.53790 5.23783 21.26760 -9.40693 -0.00000 0.00000 -0.00000 -68.33740 -39.06550 -10.65060 6.59751 34.64910 -113.47000 5.26531 8.77803 -23.70760 3.37200 1.55903 17.46640 70.05810 19.04340 63.36200 10.35190 25.52700 67.93200 16.37430 11.33980 5.39260 17.21620 -52.01700 51.24360 111.21600 56.74080 -85.05860 -32.30560 14.23820 6.19549 9.45991 61.39860 -31.37220 -41.15770 32.68950 29.90270 38.08420 9.25853 -41.15610 -28.89630 -2.92008 1.08751 1.11090 -14.21330 6.18828 
